name analog
datacolumns 19
datarows 85
range 0.5445 0.5865
endheader
time	ground_force_vx	ground_force_vy	ground_force_vz	ground_force_px	ground_force_py	ground_force_pz	l_ground_force_vx	l_ground_force_vy	l_ground_force_vz	l_ground_force_px	l_ground_force_py	l_ground_force_pz	ground_torque_x	ground_torque_y	ground_torque_z	l_ground_torque_x	l_ground_torque_y	l_ground_torque_z
0.5445	-0.0	-0.0	-0.0	-1.9862228631973269	-5.371394634246826	-633.7711791992188	-0.0	-0.0	-0.0	-0.0	-0.0	-0.0	-0.0	-0.0	-0.0	-0.0	-0.0	-0.0
0.545	-0.0	-0.0	-0.0	-4.043013095855713	-3.54168701171875	-630.0927734375	-0.0	-0.0	-0.0	-0.0	-0.0	-0.0	-0.0	-0.0	-0.0	-0.0	-0.0	-0.0
0.5455	-0.0	-0.0	-0.0	-6.521884918212891	-1.965623497962952	-626.094970703125	-0.0	-0.0	-0.0	-0.0	-0.0	-0.0	-0.0	-0.0	-0.0	-0.0	-0.0	-0.0
0.546	-0.0	-0.0	-0.0	-8.545256614685059	-1.1542316675186155	-627.415283203125	-0.0	-0.0	-0.0	-0.0	-0.0	-0.0	-0.0	-0.0	-0.0	-0.0	-0.0	-0.0
0.5465	-0.0	-0.0	-0.0	-8.9401273727417	0.0700710788369178	-624.6827392578125	-0.0	-0.0	-0.0	-0.0	-0.0	-0.0	-0.0	-0.0	-0.0	-0.0	-0.0	-0.0
0.547	-0.0	-0.0	-0.0	-7.877994537353516	1.1628252267837524	-624.5473022460938	-0.0	-0.0	-0.0	-0.0	-0.0	-0.0	-0.0	-0.0	-0.0	-0.0	-0.0	-0.0
0.5475	-0.0	-0.0	-0.0	-7.365630626678467	1.9376264810562132	-625.773193359375	-0.0	-0.0	-0.0	-0.0	-0.0	-0.0	-0.0	-0.0	-0.0	-0.0	-0.0	-0.0
0.548	-0.0	-0.0	-0.0	-6.75679349899292	2.4956512451171875	-628.1519165039062	-0.0	-0.0	-0.0	-0.0	-0.0	-0.0	-0.0	-0.0	-0.0	-0.0	-0.0	-0.0
0.5485	-0.0	-0.0	-0.0	-5.848268032073975	1.739701271057129	-629.7330322265625	-0.0	-0.0	-0.0	-0.0	-0.0	-0.0	-0.0	-0.0	-0.0	-0.0	-0.0	-0.0
0.549	-0.0	-0.0	-0.0	-5.643353462219238	2.1621999740600586	-631.4608154296875	-0.0	-0.0	-0.0	-0.0	-0.0	-0.0	-0.0	-0.0	-0.0	-0.0	-0.0	-0.0
0.5495	-0.0	-0.0	-0.0	-4.679170608520508	1.7796897888183594	-632.2833251953125	-0.0	-0.0	-0.0	-0.0	-0.0	-0.0	-0.0	-0.0	-0.0	-0.0	-0.0	-0.0
0.55	-0.0	-0.0	-0.0	-4.414605617523193	1.1560680866241455	-634.7552490234375	-0.0	-0.0	-0.0	-0.0	-0.0	-0.0	-0.0	-0.0	-0.0	-0.0	-0.0	-0.0
0.5505	-0.0	-0.0	-0.0	-3.433372735977173	1.0466668605804443	-635.208740234375	-0.0	-0.0	-0.0	-0.0	-0.0	-0.0	-0.0	-0.0	-0.0	-0.0	-0.0	-0.0
0.551	-0.0	-0.0	-0.0	-3.344245433807373	0.1782608032226562	-636.1676025390625	-0.0	-0.0	-0.0	-0.0	-0.0	-0.0	-0.0	-0.0	-0.0	-0.0	-0.0	-0.0
0.5515	-0.0	-0.0	-0.0	-3.5228121280670166	0.4248726963996887	-635.8062133789062	-0.0	-0.0	-0.0	-0.0	-0.0	-0.0	-0.0	-0.0	-0.0	-0.0	-0.0	-0.0
0.552	-0.0	-0.0	-0.0	-3.0331573486328125	-0.0909035056829452	-637.1365966796875	-0.0	-0.0	-0.0	-0.0	-0.0	-0.0	-0.0	-0.0	-0.0	-0.0	-0.0	-0.0
0.5525	-0.0	-0.0	-0.0	-2.587104797363281	-1.1828302145004272	-637.9328002929688	-0.0	-0.0	-0.0	-0.0	-0.0	-0.0	-0.0	-0.0	-0.0	-0.0	-0.0	-0.0
0.553	-0.0	-0.0	-0.0	-1.226315140724182	-1.6934776306152344	-638.11181640625	-0.0	-0.0	-0.0	-0.0	-0.0	-0.0	-0.0	-0.0	-0.0	-0.0	-0.0	-0.0
0.5535	-0.0	-0.0	-0.0	-1.582128643989563	-2.3184757232666016	-638.630126953125	-0.0	-0.0	-0.0	-0.0	-0.0	-0.0	-0.0	-0.0	-0.0	-0.0	-0.0	-0.0
0.554	-0.0	-0.0	-0.0	-1.3831603527069092	-2.9420974254608154	-637.3147583007812	-0.0	-0.0	-0.0	-0.0	-0.0	-0.0	-0.0	-0.0	-0.0	-0.0	-0.0	-0.0
0.5545	-0.0	-0.0	-0.0	-1.8285008668899536	-3.209322929382324	-635.8992309570312	-0.0	-0.0	-0.0	-0.0	-0.0	-0.0	-0.0	-0.0	-0.0	-0.0	-0.0	-0.0
0.555	-0.0	-0.0	-0.0	-2.453057289123535	-2.852635622024536	-633.6953735351562	-0.0	-0.0	-0.0	-0.0	-0.0	-0.0	-0.0	-0.0	-0.0	-0.0	-0.0	-0.0
0.5555	-0.0	-0.0	-0.0	-2.3193013668060303	-3.096895217895508	-633.8695678710938	-0.0	-0.0	-0.0	-0.0	-0.0	-0.0	-0.0	-0.0	-0.0	-0.0	-0.0	-0.0
0.556	-0.0	-0.0	-0.0	-2.475606679916382	-2.829905271530152	-631.6624145507812	-0.0	-0.0	-0.0	-0.0	-0.0	-0.0	-0.0	-0.0	-0.0	-0.0	-0.0	-0.0
0.5565	-0.0	-0.0	-0.0	-2.9883766174316406	-3.298175573348999	-629.8943481445312	-0.0	-0.0	-0.0	-0.0	-0.0	-0.0	-0.0	-0.0	-0.0	-0.0	-0.0	-0.0
0.557	-0.0	-0.0	-0.0	-3.5679032802581787	-3.499272346496582	-630.6017456054688	-0.0	-0.0	-0.0	-0.0	-0.0	-0.0	-0.0	-0.0	-0.0	-0.0	-0.0	-0.0
0.5575	-0.0	-0.0	-0.0	-3.9916090965271	-3.1858510971069336	-628.213623046875	-0.0	-0.0	-0.0	-0.0	-0.0	-0.0	-0.0	-0.0	-0.0	-0.0	-0.0	-0.0
0.558	-0.0	-0.0	-0.0	-4.527693271636963	-3.677408218383789	-627.86669921875	-0.0	-0.0	-0.0	-0.0	-0.0	-0.0	-0.0	-0.0	-0.0	-0.0	-0.0	-0.0
0.5585	-0.0	-0.0	-0.0	-4.482526779174805	-4.012072563171387	-628.582763671875	-0.0	-0.0	-0.0	-0.0	-0.0	-0.0	-0.0	-0.0	-0.0	-0.0	-0.0	-0.0
0.559	-0.0	-0.0	-0.0	-4.593655109405518	-3.854547023773194	-626.0032958984375	-0.0	-0.0	-0.0	-0.0	-0.0	-0.0	-0.0	-0.0	-0.0	-0.0	-0.0	-0.0
0.5595	-0.0	-0.0	-0.0	-4.930128574371338	-4.436315536499023	-626.6344604492188	-0.0	-0.0	-0.0	-0.0	-0.0	-0.0	-0.0	-0.0	-0.0	-0.0	-0.0	-0.0
0.56	-0.0	-0.0	-0.0	-4.591497898101807	-4.1673197746276855	-626.4623413085938	-0.0	-0.0	-0.0	-0.0	-0.0	-0.0	-0.0	-0.0	-0.0	-0.0	-0.0	-0.0
0.5605	-0.0	-0.0	-0.0	-4.969658374786377	-4.767384052276611	-626.3602905273438	-0.0	-0.0	-0.0	-0.0	-0.0	-0.0	-0.0	-0.0	-0.0	-0.0	-0.0	-0.0
0.561	-0.0	-0.0	-0.0	-5.352630615234375	-5.104478359222412	-624.78466796875	-0.0	-0.0	-0.0	-0.0	-0.0	-0.0	-0.0	-0.0	-0.0	-0.0	-0.0	-0.0
0.5615	-0.0	-0.0	-0.0	-5.087583065032959	-5.010357856750488	-624.6895141601562	-0.0	-0.0	-0.0	-0.0	-0.0	-0.0	-0.0	-0.0	-0.0	-0.0	-0.0	-0.0
0.562	-0.0	-0.0	-0.0	-4.949745655059815	-5.283130645751953	-625.481689453125	-0.0	-0.0	-0.0	-0.0	-0.0	-0.0	-0.0	-0.0	-0.0	-0.0	-0.0	-0.0
0.5625	-0.0	-0.0	-0.0	-4.663531303405762	-5.821078777313232	-623.9104614257812	-0.0	-0.0	-0.0	-0.0	-0.0	-0.0	-0.0	-0.0	-0.0	-0.0	-0.0	-0.0
0.5630000000000001	-0.0	-0.0	-0.0	-4.971077919006348	-5.034263610839844	-621.6817626953125	-0.0	-0.0	-0.0	-0.0	-0.0	-0.0	-0.0	-0.0	-0.0	-0.0	-0.0	-0.0
0.5635	-0.0	-0.0	-0.0	-5.192134380340576	-4.813041687011719	-619.209228515625	-0.0	-0.0	-0.0	-0.0	-0.0	-0.0	-0.0	-0.0	-0.0	-0.0	-0.0	-0.0
0.5640000000000001	-0.0	-0.0	-0.0	-5.891629695892334	-4.34604024887085	-618.9404296875	-0.0	-0.0	-0.0	-0.0	-0.0	-0.0	-0.0	-0.0	-0.0	-0.0	-0.0	-0.0
0.5645	-0.0	-0.0	-0.0	-6.172793388366699	-4.235705852508545	-616.5518798828125	-0.0	-0.0	-0.0	-0.0	-0.0	-0.0	-0.0	-0.0	-0.0	-0.0	-0.0	-0.0
0.5650000000000001	-0.0	-0.0	-0.0	-6.070508003234863	-3.3402953147888184	-614.6337890625	-0.0	-0.0	-0.0	-0.0	-0.0	-0.0	-0.0	-0.0	-0.0	-0.0	-0.0	-0.0
0.5655	-0.0	-0.0	-0.0	-6.491170883178711	-3.2934043407440186	-614.7183837890625	-0.0	-0.0	-0.0	-0.0	-0.0	-0.0	-0.0	-0.0	-0.0	-0.0	-0.0	-0.0
0.5660000000000001	-0.0	-0.0	-0.0	-7.273014545440674	-2.5636768341064453	-614.4308471679688	-0.0	-0.0	-0.0	-0.0	-0.0	-0.0	-0.0	-0.0	-0.0	-0.0	-0.0	-0.0
0.5665	-0.0	-0.0	-0.0	-7.005465984344482	-2.4535248279571533	-614.7000122070312	-0.0	-0.0	-0.0	-0.0	-0.0	-0.0	-0.0	-0.0	-0.0	-0.0	-0.0	-0.0
0.5670000000000001	-0.0	-0.0	-0.0	-6.202653884887695	-1.913782358169556	-613.3069458007812	-0.0	-0.0	-0.0	-0.0	-0.0	-0.0	-0.0	-0.0	-0.0	-0.0	-0.0	-0.0
0.5675	-0.0	-0.0	-0.0	-5.70947265625	-1.4207526445388794	-614.4500732421875	-0.0	-0.0	-0.0	-0.0	-0.0	-0.0	-0.0	-0.0	-0.0	-0.0	-0.0	-0.0
0.5680000000000001	-0.0	-0.0	-0.0	-4.9330596923828125	-1.494325876235962	-613.5563354492188	-0.0	-0.0	-0.0	-0.0	-0.0	-0.0	-0.0	-0.0	-0.0	-0.0	-0.0	-0.0
0.5685	-0.0	-0.0	-0.0	-4.627220153808594	-1.651841402053833	-613.9092407226562	-0.0	-0.0	-0.0	-0.0	-0.0	-0.0	-0.0	-0.0	-0.0	-0.0	-0.0	-0.0
0.5690000000000001	-0.0	-0.0	-0.0	-4.796572685241699	-1.131893515586853	-615.5341796875	-0.0	-0.0	-0.0	-0.0	-0.0	-0.0	-0.0	-0.0	-0.0	-0.0	-0.0	-0.0
0.5695	-0.0	-0.0	-0.0	-4.591209888458252	-1.3017762899398804	-615.617431640625	-0.0	-0.0	-0.0	-0.0	-0.0	-0.0	-0.0	-0.0	-0.0	-0.0	-0.0	-0.0
0.5700000000000001	-0.0	-0.0	-0.0	-3.657630920410156	-1.1239522695541382	-615.5367431640625	-0.0	-0.0	-0.0	-0.0	-0.0	-0.0	-0.0	-0.0	-0.0	-0.0	-0.0	-0.0
0.5705	-0.0	-0.0	-0.0	-2.9027016162872314	-1.364274024963379	-614.8045654296875	-0.0	-0.0	-0.0	-0.0	-0.0	-0.0	-0.0	-0.0	-0.0	-0.0	-0.0	-0.0
0.5710000000000001	-0.0	-0.0	-0.0	-1.8459529876708984	-1.6865971088409424	-615.0765380859375	-0.0	-0.0	-0.0	-0.0	-0.0	-0.0	-0.0	-0.0	-0.0	-0.0	-0.0	-0.0
0.5715	-0.0	-0.0	-0.0	-1.5442649126052856	-2.3993492126464844	-613.8794555664062	-0.0	-0.0	-0.0	-0.0	-0.0	-0.0	-0.0	-0.0	-0.0	-0.0	-0.0	-0.0
0.5720000000000001	-0.0	-0.0	-0.0	-0.9739059209823608	-2.9339003562927246	-612.9067993164062	-0.0	-0.0	-0.0	-0.0	-0.0	-0.0	-0.0	-0.0	-0.0	-0.0	-0.0	-0.0
0.5725	-0.0	-0.0	-0.0	-0.5837188959121704	-3.763835906982422	-611.3849487304688	-0.0	-0.0	-0.0	-0.0	-0.0	-0.0	-0.0	-0.0	-0.0	-0.0	-0.0	-0.0
0.5730000000000001	-0.0	-0.0	-0.0	-0.0406717173755168	-4.6144633293151855	-610.5987548828125	-0.0	-0.0	-0.0	-0.0	-0.0	-0.0	-0.0	-0.0	-0.0	-0.0	-0.0	-0.0
0.5735	-0.0	-0.0	-0.0	0.5758517980575562	-5.518059253692627	-607.7423095703125	-0.0	-0.0	-0.0	-0.0	-0.0	-0.0	-0.0	-0.0	-0.0	-0.0	-0.0	-0.0
0.5740000000000001	-0.0	-0.0	-0.0	0.5519119501113892	-6.4577956199646	-606.60302734375	-0.0	-0.0	-0.0	-0.0	-0.0	-0.0	-0.0	-0.0	-0.0	-0.0	-0.0	-0.0
0.5745	-0.0	-0.0	-0.0	0.5927023887634277	-7.397823333740234	-603.4829711914062	-0.0	-0.0	-0.0	-0.0	-0.0	-0.0	-0.0	-0.0	-0.0	-0.0	-0.0	-0.0
0.5750000000000001	-0.0	-0.0	-0.0	-0.2475097626447677	-8.128297805786133	-603.9722290039062	-0.0	-0.0	-0.0	-0.0	-0.0	-0.0	-0.0	-0.0	-0.0	-0.0	-0.0	-0.0
0.5755	-0.0	-0.0	-0.0	-0.2676315307617187	-8.061798095703125	-601.3504028320312	-0.0	-0.0	-0.0	-0.0	-0.0	-0.0	-0.0	-0.0	-0.0	-0.0	-0.0	-0.0
0.5760000000000001	-0.0	-0.0	-0.0	0.1876671910285949	-8.39823055267334	-601.0756225585938	-0.0	-0.0	-0.0	-0.0	-0.0	-0.0	-0.0	-0.0	-0.0	-0.0	-0.0	-0.0
0.5765	-0.0	-0.0	-0.0	0.7734387516975403	-8.239797592163086	-600.601318359375	-0.0	-0.0	-0.0	-0.0	-0.0	-0.0	-0.0	-0.0	-0.0	-0.0	-0.0	-0.0
0.577	-0.0	-0.0	-0.0	1.3182812929153442	-8.675204277038574	-597.5420532226562	-0.0	-0.0	-0.0	-0.0	-0.0	-0.0	-0.0	-0.0	-0.0	-0.0	-0.0	-0.0
0.5775	-0.0	-0.0	-0.0	1.4373067617416382	-8.705108642578125	-598.9147338867188	-0.0	-0.0	-0.0	-0.0	-0.0	-0.0	-0.0	-0.0	-0.0	-0.0	-0.0	-0.0
0.578	-0.0	-0.0	-0.0	1.2891523838043213	-8.041463851928711	-598.1680908203125	-0.0	-0.0	-0.0	-0.0	-0.0	-0.0	-0.0	-0.0	-0.0	-0.0	-0.0	-0.0
0.5785	-0.0	-0.0	-0.0	0.4761533737182617	-7.50663948059082	-595.8514404296875	-0.0	-0.0	-0.0	-0.0	-0.0	-0.0	-0.0	-0.0	-0.0	-0.0	-0.0	-0.0
0.579	-0.0	-0.0	-0.0	0.8028945922851562	-7.358535766601562	-594.6353759765625	-0.0	-0.0	-0.0	-0.0	-0.0	-0.0	-0.0	-0.0	-0.0	-0.0	-0.0	-0.0
0.5795	-0.0	-0.0	-0.0	0.6332061290740967	-6.952171325683594	-595.3492431640625	-0.0	-0.0	-0.0	-0.0	-0.0	-0.0	-0.0	-0.0	-0.0	-0.0	-0.0	-0.0
0.58	-0.0	-0.0	-0.0	0.632917046546936	-6.687421798706055	-593.7727661132812	-0.0	-0.0	-0.0	-0.0	-0.0	-0.0	-0.0	-0.0	-0.0	-0.0	-0.0	-0.0
0.5805	-0.0	-0.0	-0.0	0.5547209978103638	-5.863165855407715	-591.8525390625	-0.0	-0.0	-0.0	-0.0	-0.0	-0.0	-0.0	-0.0	-0.0	-0.0	-0.0	-0.0
0.581	-0.0	-0.0	-0.0	-0.1395879983901977	-5.04949951171875	-592.28271484375	-0.0	-0.0	-0.0	-0.0	-0.0	-0.0	-0.0	-0.0	-0.0	-0.0	-0.0	-0.0
0.5815	-0.0	-0.0	-0.0	-0.4460525512695312	-4.875255107879639	-590.0404663085938	-0.0	-0.0	-0.0	-0.0	-0.0	-0.0	-0.0	-0.0	-0.0	-0.0	-0.0	-0.0
0.582	-0.0	-0.0	-0.0	-0.7715414762496948	-3.48329758644104	-589.9823608398438	-0.0	-0.0	-0.0	-0.0	-0.0	-0.0	-0.0	-0.0	-0.0	-0.0	-0.0	-0.0
0.5825	-0.0	-0.0	-0.0	-0.8291497826576233	-3.2715933322906494	-588.7025756835938	-0.0	-0.0	-0.0	-0.0	-0.0	-0.0	-0.0	-0.0	-0.0	-0.0	-0.0	-0.0
0.583	-0.0	-0.0	-0.0	-1.4273681640625	-2.6930978298187256	-589.131103515625	-0.0	-0.0	-0.0	-0.0	-0.0	-0.0	-0.0	-0.0	-0.0	-0.0	-0.0	-0.0
0.5835	-0.0	-0.0	-0.0	-2.2876532077789307	-2.584781646728516	-591.2990112304688	-0.0	-0.0	-0.0	-0.0	-0.0	-0.0	-0.0	-0.0	-0.0	-0.0	-0.0	-0.0
0.584	-0.0	-0.0	-0.0	-2.975939989089966	-2.1581850051879883	-592.9891357421875	-0.0	-0.0	-0.0	-0.0	-0.0	-0.0	-0.0	-0.0	-0.0	-0.0	-0.0	-0.0
0.5845	-0.0	-0.0	-0.0	-2.554893016815185	-2.298408031463623	-595.513671875	-0.0	-0.0	-0.0	-0.0	-0.0	-0.0	-0.0	-0.0	-0.0	-0.0	-0.0	-0.0
0.585	-0.0	-0.0	-0.0	-1.8790009021759035	-2.490076065063477	-599.143310546875	-0.0	-0.0	-0.0	-0.0	-0.0	-0.0	-0.0	-0.0	-0.0	-0.0	-0.0	-0.0
0.5855	-0.0	-0.0	-0.0	-1.9437309503555296	-2.4254040718078613	-602.0220947265625	-0.0	-0.0	-0.0	-0.0	-0.0	-0.0	-0.0	-0.0	-0.0	-0.0	-0.0	-0.0
0.586	-0.0	-0.0	-0.0	-1.798111081123352	-3.166151285171509	-605.2013549804688	-0.0	-0.0	-0.0	-0.0	-0.0	-0.0	-0.0	-0.0	-0.0	-0.0	-0.0	-0.0
0.5865	-0.0	-0.0	-0.0	-1.4977927207946775	-3.7528154850006095	-607.8226318359375	-0.0	-0.0	-0.0	-0.0	-0.0	-0.0	-0.0	-0.0	-0.0	-0.0	-0.0	-0.0
